<svg id="visual" viewBox="0 0 900 100" width="900" height="100" xmlns="http://www.w3.org/2000/svg" xmlns:xlink="http://www.w3.org/1999/xlink" version="1.1"><rect x="0" y="0" width="900" height="100" fill="#202731"></rect><path d="M0 72L11.5 71.3C23 70.7 46 69.3 69 72C92 74.7 115 81.3 138.2 83.7C161.3 86 184.7 84 207.8 80.8C231 77.7 254 73.3 277 73C300 72.7 323 76.3 346 78.7C369 81 392 82 415.2 83.7C438.3 85.3 461.7 87.7 484.8 88.7C508 89.7 531 89.3 554 87.2C577 85 600 81 623 78.3C646 75.7 669 74.3 692.2 75.5C715.3 76.7 738.7 80.3 761.8 81.2C785 82 808 80 831 77.3C854 74.7 877 71.3 888.5 69.7L900 68L900 0L888.5 0C877 0 854 0 831 0C808 0 785 0 761.8 0C738.7 0 715.3 0 692.2 0C669 0 646 0 623 0C600 0 577 0 554 0C531 0 508 0 484.8 0C461.7 0 438.3 0 415.2 0C392 0 369 0 346 0C323 0 300 0 277 0C254 0 231 0 207.8 0C184.7 0 161.3 0 138.2 0C115 0 92 0 69 0C46 0 23 0 11.5 0L0 0Z" fill="#fa7268"></path><path d="M0 74L11.5 70.7C23 67.3 46 60.7 69 58.3C92 56 115 58 138.2 58.5C161.3 59 184.7 58 207.8 59C231 60 254 63 277 63.7C300 64.3 323 62.7 346 61.8C369 61 392 61 415.2 62.8C438.3 64.7 461.7 68.3 484.8 68.3C508 68.3 531 64.7 554 64.3C577 64 600 67 623 66C646 65 669 60 692.2 58.8C715.3 57.7 738.7 60.3 761.8 60.8C785 61.3 808 59.7 831 60.5C854 61.3 877 64.7 888.5 66.3L900 68L900 0L888.5 0C877 0 854 0 831 0C808 0 785 0 761.8 0C738.7 0 715.3 0 692.2 0C669 0 646 0 623 0C600 0 577 0 554 0C531 0 508 0 484.8 0C461.7 0 438.3 0 415.2 0C392 0 369 0 346 0C323 0 300 0 277 0C254 0 231 0 207.8 0C184.7 0 161.3 0 138.2 0C115 0 92 0 69 0C46 0 23 0 11.5 0L0 0Z" fill="#ef5f67"></path><path d="M0 41L11.5 43C23 45 46 49 69 50.8C92 52.7 115 52.3 138.2 53.2C161.3 54 184.7 56 207.8 56.5C231 57 254 56 277 55.2C300 54.3 323 53.7 346 52.8C369 52 392 51 415.2 49.3C438.3 47.7 461.7 45.3 484.8 45.7C508 46 531 49 554 51.3C577 53.7 600 55.3 623 54.2C646 53 669 49 692.2 47.7C715.3 46.3 738.7 47.7 761.8 48.7C785 49.7 808 50.3 831 50.8C854 51.3 877 51.7 888.5 51.8L900 52L900 0L888.5 0C877 0 854 0 831 0C808 0 785 0 761.8 0C738.7 0 715.3 0 692.2 0C669 0 646 0 623 0C600 0 577 0 554 0C531 0 508 0 484.8 0C461.7 0 438.3 0 415.2 0C392 0 369 0 346 0C323 0 300 0 277 0C254 0 231 0 207.8 0C184.7 0 161.3 0 138.2 0C115 0 92 0 69 0C46 0 23 0 11.5 0L0 0Z" fill="#e34c67"></path><path d="M0 27L11.5 27.3C23 27.7 46 28.3 69 29C92 29.7 115 30.3 138.2 31C161.3 31.7 184.7 32.3 207.8 31.7C231 31 254 29 277 28.8C300 28.7 323 30.3 346 32.2C369 34 392 36 415.2 35.3C438.3 34.7 461.7 31.3 484.8 30.7C508 30 531 32 554 34C577 36 600 38 623 36.3C646 34.7 669 29.3 692.2 27C715.3 24.7 738.7 25.3 761.8 27.7C785 30 808 34 831 35.5C854 37 877 36 888.5 35.5L900 35L900 0L888.5 0C877 0 854 0 831 0C808 0 785 0 761.8 0C738.7 0 715.3 0 692.2 0C669 0 646 0 623 0C600 0 577 0 554 0C531 0 508 0 484.8 0C461.7 0 438.3 0 415.2 0C392 0 369 0 346 0C323 0 300 0 277 0C254 0 231 0 207.8 0C184.7 0 161.3 0 138.2 0C115 0 92 0 69 0C46 0 23 0 11.5 0L0 0Z" fill="#d53867"></path><path d="M0 9L11.5 9C23 9 46 9 69 9C92 9 115 9 138.2 9C161.3 9 184.7 9 207.8 9.5C231 10 254 11 277 13.8C300 16.7 323 21.3 346 23.5C369 25.7 392 25.3 415.2 22.7C438.3 20 461.7 15 484.8 12.8C508 10.7 531 11.3 554 12C577 12.7 600 13.3 623 13.8C646 14.3 669 14.7 692.2 15C715.3 15.3 738.7 15.7 761.8 16.8C785 18 808 20 831 21.5C854 23 877 24 888.5 24.5L900 25L900 0L888.5 0C877 0 854 0 831 0C808 0 785 0 761.8 0C738.7 0 715.3 0 692.2 0C669 0 646 0 623 0C600 0 577 0 554 0C531 0 508 0 484.8 0C461.7 0 438.3 0 415.2 0C392 0 369 0 346 0C323 0 300 0 277 0C254 0 231 0 207.8 0C184.7 0 161.3 0 138.2 0C115 0 92 0 69 0C46 0 23 0 11.5 0L0 0Z" fill="#c62368"></path></svg>